<svg id="Component_94_1" data-name="Component 94 – 1" xmlns="http://www.w3.org/2000/svg" xmlns:xlink="http://www.w3.org/1999/xlink" width="38.948" height="35.179" viewBox="0 0 38.948 35.179">
  <defs>
    <clipPath id="clip-path">
      <rect id="Rectangle_20033" data-name="Rectangle 20033" width="21.599" height="14.699" fill="#dbdbdb"/>
    </clipPath>
  </defs>
  <path id="Rectangle_20032" data-name="Rectangle 20032" d="M8.166,3.141A5.031,5.031,0,0,0,3.141,8.166V27.012a5.031,5.031,0,0,0,5.026,5.026H30.781a5.031,5.031,0,0,0,5.026-5.026V8.166a5.031,5.031,0,0,0-5.026-5.026H8.166M8.166,0H30.781a8.166,8.166,0,0,1,8.166,8.166V27.012a8.166,8.166,0,0,1-8.166,8.166H8.166A8.166,8.166,0,0,1,0,27.012V8.166A8.166,8.166,0,0,1,8.166,0Z" fill="#02a4ac"/>
  <g id="Group_26865" data-name="Group 26865" transform="translate(8.674 10.24)">
    <g id="Group_26864" data-name="Group 26864" clip-path="url(#clip-path)">
      <path id="Path_22181" data-name="Path 22181" d="M4.763,0H7.3l.863,0A1.3,1.3,0,0,1,8.44,2.576a3.127,3.127,0,0,1-.424.02H2.9c-.28,0-.281,0-.281.282,0,.978,0,1.956,0,2.934,0,.186.055.243.242.242,1.625-.006,3.25,0,4.876,0a1.27,1.27,0,0,1,1.214.726A1.292,1.292,0,0,1,7.867,8.641c-.1.006-.2,0-.3,0H2.89c-.272,0-.273,0-.273.264q0,1.457,0,2.913c0,.276,0,.277.286.277,1.605,0,3.21,0,4.815,0a1.273,1.273,0,0,1,1.15.59,1.293,1.293,0,0,1-1.029,2c-.094.006-.189,0-.283,0q-2.853,0-5.705,0a3.964,3.964,0,0,1-.88-.052,1.283,1.283,0,0,1-.97-1.3c.009-.775.021-1.551.02-2.326C.018,9.8,0,8.584,0,7.371c0-2,.022-4.005.017-6.008A1.333,1.333,0,0,1,1.405,0L4.763,0" transform="translate(0 -0.001)" fill="#dbdbdb"/>
      <path id="Path_22182" data-name="Path 22182" d="M279.905,44.535c.1-.043.162-.065.22-.094a5.18,5.18,0,0,1,7.53,4.652c0,1.835,0,3.669,0,5.5a1.281,1.281,0,0,1-1.006,1.334,1.3,1.3,0,0,1-1.584-1.328c-.008-1.093,0-2.185,0-3.278,0-.755-.006-1.511,0-2.266a2.577,2.577,0,0,0-5.039-.77,3.582,3.582,0,0,0-.106.938c-.01,1.774,0,3.548-.005,5.322a1.336,1.336,0,0,1-.757,1.3,1.3,1.3,0,0,1-1.806-.811,1.618,1.618,0,0,1-.068-.415q0-5.11.013-10.219a1.3,1.3,0,0,1,1.439-1.377,1.279,1.279,0,0,1,1.143,1.15c.009.106.018.211.031.359" transform="translate(-266.057 -41.279)" fill="#dbdbdb"/>
    </g>
  </g>
</svg>
