<svg id="Group_26390" data-name="Group 26390" xmlns="http://www.w3.org/2000/svg" xmlns:xlink="http://www.w3.org/1999/xlink" width="178" height="48.483" viewBox="0 0 178 48.483">
  <defs>
    <clipPath id="clip-path">
      <rect id="Rectangle_8" data-name="Rectangle 8" width="178" height="48.483" fill="#fff"/>
    </clipPath>
  </defs>
  <path id="Path_181" data-name="Path 181" d="M2.048,395.271.694,397H.675v-1.728H0v3.8H.675v-1.109l.547-.679,1.028,1.788h.745l-1.368-2.319,1.17-1.483Z" transform="translate(-0.001 -355.529)" fill="#fff"/>
  <rect id="Rectangle_6" data-name="Rectangle 6" width="0.67" height="2.856" transform="translate(3.413 40.688)" fill="#fff"/>
  <g id="Group_22418" data-name="Group 22418">
    <g id="Group_22417" data-name="Group 22417" clip-path="url(#clip-path)">
      <path id="Path_182" data-name="Path 182" d="M33.6,392.17a.381.381,0,1,0,.414.379.383.383,0,0,0-.414-.379" transform="translate(-29.848 -352.74)" fill="#fff"/>
      <path id="Path_183" data-name="Path 183" d="M50.657,403.992a1.335,1.335,0,0,0-.938.456H49.7l-.052-.386H49.1v2.856h.67v-2a.9.9,0,0,1,.651-.356c.309,0,.445.177.445.647v1.7h.669v-1.791c0-.721-.268-1.135-.879-1.135" transform="translate(-44.164 -363.373)" fill="#fff"/>
      <path id="Path_184" data-name="Path 184" d="M81.207,406.467H80.7c-.347,0-.463-.1-.463-.258a.328.328,0,0,1,.139-.273,1.1,1.1,0,0,0,.386.075.974.974,0,0,0,1.087-.974.752.752,0,0,0-.163-.479h.521v-.5H81.185a1.275,1.275,0,0,0-.424-.07,1.04,1.04,0,0,0-1.128,1.026.951.951,0,0,0,.377.754v.023a.691.691,0,0,0-.316.533.542.542,0,0,0,.258.477v.023a.728.728,0,0,0-.412.609c0,.5.507.744,1.189.744.933,0,1.524-.444,1.524-1.007,0-.493-.363-.7-1.046-.7m-.445-2.014a.5.5,0,0,1,.5.562.5.5,0,1,1-.991,0,.5.5,0,0,1,.5-.562m.07,3.291c-.449,0-.728-.151-.728-.412a.473.473,0,0,1,.221-.376,1.566,1.566,0,0,0,.386.039H81.1c.327,0,.5.065.5.286,0,.246-.314.463-.775.463" transform="translate(-71.543 -363.371)" fill="#fff"/>
      <path id="Path_185" data-name="Path 185" d="M123.08,396.362l-.513-.215c-.315-.129-.6-.24-.6-.538,0-.278.234-.447.6-.447a1.223,1.223,0,0,1,.826.327l.346-.428a1.667,1.667,0,0,0-1.172-.485,1.157,1.157,0,0,0-1.277,1.073,1.091,1.091,0,0,0,.769,1.008l.52.225c.345.147.591.247.591.56,0,.3-.235.49-.663.49a1.5,1.5,0,0,1-.991-.433l-.393.463a1.959,1.959,0,0,0,1.37.557,1.21,1.21,0,0,0,1.365-1.13,1.054,1.054,0,0,0-.769-1.026" transform="translate(-108.937 -354.904)" fill="#fff"/>
      <path id="Path_186" data-name="Path 186" d="M154.4,403.994a2.225,2.225,0,0,0-1.172.374l.247.447a1.574,1.574,0,0,1,.8-.282c.386,0,.51.256.519.563-1.172.125-1.679.444-1.679,1.055a.8.8,0,0,0,.844.838,1.38,1.38,0,0,0,.886-.386h.019l.051.317h.549v-1.691c0-.8-.352-1.235-1.066-1.235m.4,2.161a.9.9,0,0,1-.621.309c-.24,0-.412-.111-.412-.363,0-.288.258-.49,1.032-.588Z" transform="translate(-137.722 -363.375)" fill="#fff"/>
      <path id="Path_187" data-name="Path 187" d="M185.3,395.871c-.07,0-.144-.058-.144-.223V392.24h-.67v3.373c0,.5.174.8.649.8a.947.947,0,0,0,.353-.058l-.083-.5a.393.393,0,0,1-.1.012" transform="translate(-165.936 -352.803)" fill="#fff"/>
      <path id="Path_188" data-name="Path 188" d="M203.572,405.213v1.7h.67v-1.791c0-.721-.279-1.135-.882-1.135a1.294,1.294,0,0,0-.919.512.77.77,0,0,0-.788-.512,1.229,1.229,0,0,0-.877.459h-.018l-.052-.389h-.549v2.856h.67v-2a.891.891,0,0,1,.6-.356c.3,0,.44.177.44.647v1.7h.67v-2a.882.882,0,0,1,.6-.356c.3,0,.44.177.44.647" transform="translate(-180.033 -363.373)" fill="#fff"/>
      <path id="Path_189" data-name="Path 189" d="M247.385,406.152a.8.8,0,0,0,.844.838,1.38,1.38,0,0,0,.886-.386h.019l.051.317h.549v-1.692c0-.795-.352-1.234-1.066-1.234a2.226,2.226,0,0,0-1.172.374l.247.446a1.578,1.578,0,0,1,.8-.281c.386,0,.51.256.519.563-1.172.126-1.679.444-1.679,1.056m1.679-.64v.642a.9.9,0,0,1-.621.309c-.24,0-.412-.111-.412-.363,0-.288.258-.491,1.032-.588" transform="translate(-222.512 -363.375)" fill="#fff"/>
      <path id="Path_190" data-name="Path 190" d="M280.31,403.992a1.335,1.335,0,0,0-.938.456h-.018l-.052-.386h-.549v2.856h.67v-2a.9.9,0,0,1,.651-.356c.309,0,.445.177.445.647v1.7h.669v-1.791c0-.721-.268-1.135-.879-1.135" transform="translate(-250.727 -363.373)" fill="#fff"/>
      <path id="Path_191" data-name="Path 191" d="M323.085,398.518a1.729,1.729,0,0,0,1.214-.451v-1.677h-1.321v.554h.717v.821a.851.851,0,0,1-.542.167c-.763,0-1.165-.525-1.165-1.393s.453-1.377,1.128-1.377a1.028,1.028,0,0,1,.767.33l.361-.435a1.566,1.566,0,0,0-1.15-.481,1.8,1.8,0,0,0-1.8,1.984,1.758,1.758,0,0,0,1.791,1.959" transform="translate(-288.99 -354.903)" fill="#fff"/>
      <path id="Path_192" data-name="Path 192" d="M359.666,396.413a.943.943,0,0,0,.353-.058l-.084-.5a.4.4,0,0,1-.1.011c-.07,0-.144-.058-.144-.223v-3.408h-.67v3.373c0,.5.175.8.649.8" transform="translate(-322.92 -352.798)" fill="#fff"/>
      <path id="Path_193" data-name="Path 193" d="M374.179,406.988a1.505,1.505,0,1,0-1.359-1.5,1.382,1.382,0,0,0,1.359,1.5m0-2.449c.418,0,.67.381.67.954s-.251.949-.67.949-.67-.377-.67-.949.252-.954.67-.954" transform="translate(-335.335 -363.373)" fill="#fff"/>
      <path id="Path_194" data-name="Path 194" d="M406.68,396.049h.018a1.149,1.149,0,0,0,.779.37c.636,0,1.22-.566,1.22-1.546,0-.878-.413-1.45-1.127-1.45a1.3,1.3,0,0,0-.825.356l.019-.475v-1.063h-.67v4.108h.528Zm.084-1.752a.9.9,0,0,1,.623-.321c.435,0,.622.337.622.907,0,.647-.291.982-.672.982a.882.882,0,0,1-.572-.237Z" transform="translate(-365.263 -352.804)" fill="#fff"/>
      <path id="Path_195" data-name="Path 195" d="M438.163,406.6h.018l.052.316h.549v-1.691c0-.8-.352-1.235-1.066-1.235a2.224,2.224,0,0,0-1.172.374l.246.447a1.579,1.579,0,0,1,.8-.281c.386,0,.509.256.518.563-1.172.126-1.679.444-1.679,1.056a.8.8,0,0,0,.845.838,1.383,1.383,0,0,0,.886-.386m-1.084-.5c0-.288.258-.49,1.032-.589v.642a.9.9,0,0,1-.62.309c-.24,0-.412-.11-.412-.363" transform="translate(-392.552 -363.375)" fill="#fff"/>
      <path id="Path_196" data-name="Path 196" d="M468.618,395.871c-.07,0-.144-.058-.144-.223V392.24h-.67v3.373c0,.5.174.8.649.8a.948.948,0,0,0,.353-.058l-.084-.5a.393.393,0,0,1-.1.012" transform="translate(-420.769 -352.803)" fill="#fff"/>
      <path id="Path_197" data-name="Path 197" d="M491.674,398.042h1.275l.295,1.03h.714l-1.24-3.8h-.791l-1.24,3.8h.689Zm.286-.993c.121-.4.233-.833.338-1.254h.023c.112.417.223.851.344,1.254l.133.464h-.971Z" transform="translate(-441.353 -355.527)" fill="#fff"/>
      <path id="Path_198" data-name="Path 198" d="M527.48,406.2a.94.94,0,0,1-.591.247c-.444,0-.758-.377-.758-.949s.319-.954.78-.954a.7.7,0,0,1,.475.21l.326-.435a1.222,1.222,0,0,0-.836-.321,1.411,1.411,0,0,0-1.432,1.5,1.359,1.359,0,0,0,1.377,1.5,1.411,1.411,0,0,0,.933-.352Z" transform="translate(-472.613 -363.374)" fill="#fff"/>
      <path id="Path_199" data-name="Path 199" d="M554.276,405.229c0-.8-.352-1.235-1.066-1.235a2.228,2.228,0,0,0-1.173.374l.247.447a1.574,1.574,0,0,1,.8-.282c.386,0,.51.256.518.563-1.172.125-1.679.444-1.679,1.055a.8.8,0,0,0,.844.838,1.38,1.38,0,0,0,.886-.386h.019l.051.317h.549Zm-.67.926a.9.9,0,0,1-.621.309c-.24,0-.412-.111-.412-.363,0-.288.258-.49,1.032-.588Z" transform="translate(-496.434 -363.375)" fill="#fff"/>
      <path id="Path_200" data-name="Path 200" d="M584.16,396.345v-4.108h-.67v1.035l.026.461a1.05,1.05,0,0,0-.749-.314,1.343,1.343,0,0,0-1.21,1.5c0,.942.461,1.5,1.173,1.5a1.2,1.2,0,0,0,.812-.379h.019l.051.309Zm-.67-.8a.755.755,0,0,1-.6.321c-.411,0-.649-.328-.649-.949,0-.6.3-.94.663-.94a.843.843,0,0,1,.582.237Z" transform="translate(-523.084 -352.8)" fill="#fff"/>
      <path id="Path_201" data-name="Path 201" d="M616.2,406.262a1.215,1.215,0,0,1-.663.208.813.813,0,0,1-.842-.8h1.813a1.748,1.748,0,0,0,.029-.325c0-.8-.407-1.356-1.179-1.356a1.506,1.506,0,0,0,.091,3,1.771,1.771,0,0,0,.979-.309Zm-.828-1.751c.391,0,.586.268.586.707h-1.27a.717.717,0,0,1,.684-.707" transform="translate(-552.302 -363.373)" fill="#fff"/>
      <path id="Path_202" data-name="Path 202" d="M646.937,406.918h.67v-2a.88.88,0,0,1,.6-.356c.3,0,.44.177.44.647v1.7h.669v-1.791c0-.721-.279-1.135-.881-1.135a1.292,1.292,0,0,0-.919.512.769.769,0,0,0-.788-.512,1.227,1.227,0,0,0-.877.459h-.019l-.051-.389h-.549v2.856h.67v-2a.89.89,0,0,1,.6-.356c.3,0,.44.177.44.647Z" transform="translate(-580.356 -363.373)" fill="#fff"/>
      <path id="Path_203" data-name="Path 203" d="M691.517,407.687a.6.6,0,0,1-.57.49.8.8,0,0,1-.2-.039l-.123.519a1.115,1.115,0,0,0,.372.058c.623,0,.924-.4,1.161-1.042l1.033-2.987h-.647l-.426,1.4c-.075.261-.147.542-.218.807h-.024c-.083-.272-.165-.554-.251-.807l-.493-1.4h-.679l1.123,2.821Z" transform="translate(-621.027 -363.997)" fill="#fff"/>
      <path id="Path_204" data-name="Path 204" d="M732.766,392.513v.3l-.384.028v.5h.384v2.324h.67v-2.324h.558v-.532h-.558V392.5c0-.332.126-.482.363-.482a.794.794,0,0,1,.309.067l.128-.5a1.452,1.452,0,0,0-.523-.1c-.674,0-.946.434-.946,1.026" transform="translate(-658.746 -352.126)" fill="#fff"/>
      <path id="Path_205" data-name="Path 205" d="M752.3,403.938a1.505,1.505,0,1,0,1.358,1.5,1.384,1.384,0,0,0-1.358-1.5m0,2.449c-.418,0-.67-.377-.67-.949s.252-.954.67-.954.67.381.67.954-.251.949-.67.949" transform="translate(-675.443 -363.325)" fill="#fff"/>
      <path id="Path_206" data-name="Path 206" d="M785.185,404.517h-.019l-.051-.509h-.549v2.856h.67v-1.742c.172-.435.447-.591.675-.591a.96.96,0,0,1,.293.046l.116-.581a.72.72,0,0,0-.323-.058.975.975,0,0,0-.812.579" transform="translate(-705.683 -363.325)" fill="#fff"/>
      <path id="Path_207" data-name="Path 207" d="M814.6,395.217l-1.24,3.8h.689l.3-1.03h1.275l.295,1.03h.714l-1.24-3.8Zm-.1,2.243.134-.464c.121-.4.233-.833.337-1.254h.023c.111.417.223.851.344,1.254l.133.464Z" transform="translate(-731.578 -355.481)" fill="#fff"/>
      <path id="Path_208" data-name="Path 208" d="M850.593,404.517h-.019l-.051-.509h-.549v2.856h.67v-1.742c.172-.435.447-.591.675-.591a.961.961,0,0,1,.293.046l.116-.581a.72.72,0,0,0-.323-.058.975.975,0,0,0-.812.579" transform="translate(-764.515 -363.325)" fill="#fff"/>
      <path id="Path_209" data-name="Path 209" d="M869.8,403.939a2.228,2.228,0,0,0-1.173.374l.247.447a1.572,1.572,0,0,1,.8-.282c.386,0,.51.256.519.563-1.172.125-1.679.444-1.679,1.055a.8.8,0,0,0,.844.838,1.38,1.38,0,0,0,.886-.387h.019l.051.317h.549v-1.691c0-.8-.352-1.235-1.066-1.235m.4,2.161a.9.9,0,0,1-.621.309c-.24,0-.412-.111-.412-.363,0-.288.258-.49,1.032-.588Z" transform="translate(-781.195 -363.326)" fill="#fff"/>
      <path id="Path_210" data-name="Path 210" d="M901.359,393.364a1.3,1.3,0,0,0-.824.356l.019-.475v-1.063h-.67v4.108h.528l.058-.3h.019a1.149,1.149,0,0,0,.779.37c.635,0,1.219-.565,1.219-1.546,0-.878-.413-1.45-1.128-1.45m-.233,2.442a.882.882,0,0,1-.572-.237v-1.331a.9.9,0,0,1,.623-.321c.435,0,.621.337.621.907,0,.646-.291.982-.672.982" transform="translate(-809.406 -352.751)" fill="#fff"/>
      <path id="Path_211" data-name="Path 211" d="M932.092,392.115a.381.381,0,1,0,.414.379.383.383,0,0,0-.414-.379" transform="translate(-838.004 -352.69)" fill="#fff"/>
      <rect id="Rectangle_7" data-name="Rectangle 7" width="0.67" height="2.856" transform="translate(93.751 40.683)" fill="#fff"/>
      <path id="Path_212" data-name="Path 212" d="M947.172,406.387c-.444,0-.758-.377-.758-.949s.319-.954.779-.954a.7.7,0,0,1,.475.209l.326-.435a1.223,1.223,0,0,0-.836-.321,1.412,1.412,0,0,0-1.432,1.5,1.359,1.359,0,0,0,1.377,1.5,1.414,1.414,0,0,0,.933-.351l-.272-.442a.938.938,0,0,1-.591.247" transform="translate(-850.639 -363.325)" fill="#fff"/>
      <path id="Path_213" data-name="Path 213" d="M987.131,395.215h-.675v3.8h2.254v-.568h-1.58Z" transform="translate(-887.275 -355.479)" fill="#fff"/>
      <path id="Path_214" data-name="Path 214" d="M1014.672,403.939a2.228,2.228,0,0,0-1.173.374l.247.447a1.573,1.573,0,0,1,.8-.282c.386,0,.51.256.519.563-1.172.125-1.679.444-1.679,1.055a.8.8,0,0,0,.844.838,1.38,1.38,0,0,0,.886-.387h.019l.051.317h.549v-1.691c0-.8-.352-1.235-1.066-1.235m.4,2.161a.9.9,0,0,1-.621.309c-.24,0-.412-.111-.412-.363,0-.288.258-.49,1.033-.588Z" transform="translate(-911.499 -363.326)" fill="#fff"/>
      <path id="Path_215" data-name="Path 215" d="M1046.312,403.938a1.335,1.335,0,0,0-.938.456h-.018l-.051-.386h-.549v2.856h.67v-2a.9.9,0,0,1,.651-.356c.309,0,.445.177.445.647v1.7h.67v-1.791c0-.721-.267-1.135-.879-1.135" transform="translate(-939.713 -363.325)" fill="#fff"/>
      <path id="Path_216" data-name="Path 216" d="M1076.863,406.414h-.508c-.347,0-.463-.1-.463-.258a.328.328,0,0,1,.14-.273,1.092,1.092,0,0,0,.386.075.975.975,0,0,0,1.087-.974.753.753,0,0,0-.163-.479h.521v-.5h-1.021a1.27,1.27,0,0,0-.423-.07,1.039,1.039,0,0,0-1.128,1.026.95.95,0,0,0,.377.754v.023a.691.691,0,0,0-.317.533.543.543,0,0,0,.259.477v.023a.727.727,0,0,0-.412.609c0,.5.507.744,1.189.744.933,0,1.524-.444,1.524-1.007,0-.493-.364-.7-1.046-.7m-.445-2.014a.5.5,0,0,1,.5.562.5.5,0,1,1-.992,0,.5.5,0,0,1,.5-.562m.07,3.291c-.449,0-.728-.151-.728-.412a.474.474,0,0,1,.221-.376,1.563,1.563,0,0,0,.386.039h.392c.327,0,.5.065.5.286,0,.246-.314.463-.775.463" transform="translate(-967.092 -363.324)" fill="#fff"/>
      <path id="Path_217" data-name="Path 217" d="M1108.635,406.59c-.216.279-.381.4-.633.4-.309,0-.444-.176-.444-.646v-1.7h-.67v1.791c0,.721.268,1.135.88,1.135a1.162,1.162,0,0,0,.918-.491h.019l.051.421h.549v-2.856h-.67Z" transform="translate(-995.598 -363.951)" fill="#fff"/>
      <path id="Path_218" data-name="Path 218" d="M1139.126,403.939a2.226,2.226,0,0,0-1.172.374l.247.447a1.572,1.572,0,0,1,.8-.282c.386,0,.51.256.519.563-1.172.125-1.679.444-1.679,1.055a.8.8,0,0,0,.844.838,1.381,1.381,0,0,0,.886-.387h.019l.051.317h.549v-1.691c0-.8-.351-1.235-1.066-1.235m.4,2.161a.9.9,0,0,1-.621.309c-.24,0-.412-.111-.412-.363,0-.288.258-.49,1.032-.588Z" transform="translate(-1023.44 -363.326)" fill="#fff"/>
      <path id="Path_219" data-name="Path 219" d="M1168.931,406.414h-.508c-.347,0-.463-.1-.463-.258a.328.328,0,0,1,.14-.273,1.093,1.093,0,0,0,.386.075.975.975,0,0,0,1.087-.974.753.753,0,0,0-.163-.479h.521v-.5h-1.021a1.27,1.27,0,0,0-.424-.07,1.04,1.04,0,0,0-1.128,1.026.951.951,0,0,0,.377.754v.023a.691.691,0,0,0-.316.533.542.542,0,0,0,.258.477v.023a.727.727,0,0,0-.412.609c0,.5.507.744,1.189.744.933,0,1.524-.444,1.524-1.007,0-.493-.364-.7-1.046-.7m-.445-2.014a.5.5,0,0,1,.5.562.5.5,0,1,1-.991,0,.5.5,0,0,1,.495-.562m.07,3.291c-.448,0-.728-.151-.728-.412a.473.473,0,0,1,.221-.376,1.566,1.566,0,0,0,.386.039h.392c.327,0,.5.065.5.286,0,.246-.314.463-.775.463" transform="translate(-1049.904 -363.324)" fill="#fff"/>
      <path id="Path_220" data-name="Path 220" d="M1197.8,403.94a1.506,1.506,0,0,0,.091,3,1.778,1.778,0,0,0,.979-.309l-.228-.417a1.216,1.216,0,0,1-.663.207.813.813,0,0,1-.843-.8h1.813a1.717,1.717,0,0,0,.029-.326c0-.8-.407-1.356-1.18-1.356m-.67,1.226a.717.717,0,0,1,.684-.707c.391,0,.586.268.586.707Z" transform="translate(-1076.181 -363.327)" fill="#fff"/>
      <path id="Path_221" data-name="Path 221" d="M5.495,82.926H19.969a3.009,3.009,0,0,0,1.291-1.776q.059-.6.06-1.2c0-.164,0-.326-.008-.485a16.456,16.456,0,0,0-.469-2.633l-.21-.06L19.544,78.39a22.866,22.866,0,0,1,.641,2.843H5.495A10.029,10.029,0,0,1,2.868,80.9a2.7,2.7,0,0,1-2.193-2.67v-.38l-.193-.075A4.4,4.4,0,0,0,0,79.42V79.7q0,3.2,5.492,3.223" transform="translate(-0.003 -69.052)" fill="#fff"/>
      <path id="Path_222" data-name="Path 222" d="M91.86,76.142v-.023a10.389,10.389,0,0,0-1.455-.9.216.216,0,0,0-.1.022,2.348,2.348,0,0,0-.641,1.313v.023a10.253,10.253,0,0,0,1.507.88,2.35,2.35,0,0,0,.687-1.313" transform="translate(-80.651 -67.654)" fill="#fff"/>
      <path id="Path_223" data-name="Path 223" d="M252.545,50.866a4.819,4.819,0,0,0,.3-1.754v-.947l-.172-.112-1.111,1.156.015,1.619q-1.911-.082-2.171-.425l.538-2.194-.157-.082-1,.955-.493,1.709h-3.231a5.378,5.378,0,0,0,.53-1,2.656,2.656,0,0,0,.186-.959l-.193-.09A6.314,6.314,0,0,1,244.54,50a3.527,3.527,0,0,1-1.768.787h-1.836a1.368,1.368,0,0,1-1.323-.672,7.436,7.436,0,0,1-.511-2.6q-.15-1.932-.411-4.589H238.5l-.791,1.366q.261,2.6.373,4.1a17.134,17.134,0,0,0,.209,1.828q-.366.575-1.851.574-.118,0-.239-.007h-.355a3.95,3.95,0,0,1-.652-.194,2.559,2.559,0,0,1-1.44-2.343V47.7c0-.06-.111-.1-.335-.134a4.87,4.87,0,0,0-2.186.589A3.861,3.861,0,0,0,229.6,49.59a2.407,2.407,0,0,1-2.365,1.223h-.078c-.013-.011-.026-.022-.033-.022h-.239a1.376,1.376,0,0,1-1.327-.672,7.331,7.331,0,0,1-.512-2.6q-.146-1.932-.406-4.589h-.194l-.783,1.366q.261,2.6.369,4.1a13.424,13.424,0,0,0,.295,2.224,2.373,2.373,0,0,0,.977,1.387,2.715,2.715,0,0,0,1.464.464l.014.014h.343l.005-.005a4.66,4.66,0,0,0,.942-.23,2.053,2.053,0,0,0,1.171-1.362q.023.217.6.717a15.533,15.533,0,0,0,3.618,1.514q.261,0,.709-.969a3.221,3.221,0,0,0,1.559.336h.4l.011-.011a3.107,3.107,0,0,0,.959-.153,3.191,3.191,0,0,0,1.448-1.283,2.2,2.2,0,0,0,.821.969,2.705,2.705,0,0,0,1.5.467l.011.011h1.835a2.217,2.217,0,0,0,1.254-.679l.239.679h2.231v-.008h1.2l.746-.716a4.5,4.5,0,0,0,2.872.724h.351a5.123,5.123,0,0,0,.94-1.619m-19.436.2a7.337,7.337,0,0,1-2.6-1.3v-.045a6.923,6.923,0,0,1,2.015-.544.281.281,0,0,1,.231.134v.47a2.5,2.5,0,0,0,.358,1.246Z" transform="translate(-201.176 -38.611)" fill="#fff"/>
      <path id="Path_224" data-name="Path 224" d="M590.982,68.609l.052.023a2,2,0,0,0,1.194-1.768q0-.664-1.866-.664a3.648,3.648,0,0,1,2.029-.694h.239q.6,0,.6.477h.023a1.559,1.559,0,0,0,.455-.932q0-.522-.694-.522h-.284a3.944,3.944,0,0,0-2.433,1q-.865.8-.865,1.313v.1q0,.239.411.239h.261a2.593,2.593,0,0,1,1.507.358,4.468,4.468,0,0,1-2.246.456q-.79-.03-1.746-.149l-.045.029v.023a6.428,6.428,0,0,0,3.1.813.612.612,0,0,0,.306-.1" transform="translate(-528.496 -58.04)" fill="#fff"/>
      <path id="Path_225" data-name="Path 225" d="M563.61,52.489h5a5.986,5.986,0,0,0,1.454-1.448,3.894,3.894,0,0,0,1.292,2.284,1.515,1.515,0,0,0,1.059.4,2.55,2.55,0,0,0,.642-.089,1.975,1.975,0,0,0,.6-.642,2.941,2.941,0,0,0,.268-1.47V51.3a2.863,2.863,0,0,0,1.925,1.164,3.77,3.77,0,0,0,.409.021h.166l.018-.015a3.707,3.707,0,0,0,.922-.164,4.956,4.956,0,0,1,1.506-.5h.06a6.086,6.086,0,0,1,2.186.887h.127a7.056,7.056,0,0,0,.56-1.447.636.636,0,0,0,.03-.2.519.519,0,0,0-.015-.134,4.336,4.336,0,0,0-.686-.47,3.361,3.361,0,0,1-1.358-.851,8.143,8.143,0,0,1-.574-3.082l.418.209h.112l.731-1.432v-.164l-1.463-.948a1.034,1.034,0,0,1-.693-.955c0-.06,0-.12.008-.179l-.134-.1-.1.164a3.185,3.185,0,0,0-.664,1.671v.179q0,.447.843.9.388,4.037.433,4.41a4.321,4.321,0,0,1-2.157.53c-.085,0-.167,0-.246-.008l-.011.008h-.086c-.095,0-.228-.008-.4-.022a1.312,1.312,0,0,1-1.008-.657q-.381-.664-1.067-7.185h-.194l-.806,1.366q.6,5.341.611,6.2a7.868,7.868,0,0,1-.19,1.2.532.532,0,0,1-.571.4l-.008.008a1.4,1.4,0,0,1-1.272-.966q-.452-.967-1-8.2h-.194l-.843,1.366.366,4.1a17.229,17.229,0,0,0,.209,1.828q-.3.567-1.821.567H563.61a10.717,10.717,0,0,1-2.626-.314,2.7,2.7,0,0,1-2.194-2.67V47.43l-.194-.075A4.388,4.388,0,0,0,558.119,49v.283q0,3.2,5.491,3.2" transform="translate(-502.004 -38.615)" fill="#fff"/>
      <path id="Path_226" data-name="Path 226" d="M803.414,52.622a8.127,8.127,0,0,0,.8-2.432,62.612,62.612,0,0,0-.821-7.111h-.261l-.873,1.776a59.717,59.717,0,0,1,.895,7.767Z" transform="translate(-721.596 -38.748)" fill="#fff"/>
      <path id="Path_227" data-name="Path 227" d="M887.68,69.893a5.724,5.724,0,0,1,2.3-1.086,4.123,4.123,0,0,0,.426,1.537q.314.709,1.985.709H893.9l.009-.009a3.907,3.907,0,0,0,1.311-.214,3.638,3.638,0,0,0,.638-.631q.281-.354.623-.869a5.447,5.447,0,0,0,.947.545,11.962,11.962,0,0,0,2.395.8q.18,0,.985-1.537v-.612q-.275-3.193-1.693-3.193h-.06q-1.612,0-2.932,3.313-.515.708-2.328.709H891.6a1.1,1.1,0,0,1-.9-.664h1.425l.843-1.6-.052-.135h-.4a14.046,14.046,0,0,1-3.633-.678q-.276-.068-1-.254a5.112,5.112,0,0,0-1.234-.187h-.023a2.416,2.416,0,0,0-2.067,1.023,4.394,4.394,0,0,0-.6,1.246l.179.09a1.739,1.739,0,0,1,1.462-.664h.216a6.821,6.821,0,0,1,1.5.235q.966.235,1.123.28a9.856,9.856,0,0,1-4.581,1.306h-.97l-.016.022h-.037a3.9,3.9,0,0,1-.746-.216,2.558,2.558,0,0,1-1.44-2.343v-.56c0-.06-.113-.1-.336-.134a4.867,4.867,0,0,0-2.186.589,3.862,3.862,0,0,0-1.634,1.441,2.408,2.408,0,0,1-2.365,1.223h-.141l-.023-.022H872.46a4.028,4.028,0,0,1-2.477-.493l-.075-.082.544-.216a7.945,7.945,0,0,0,1.634-.664l.649-1.44-.2-.142q-2.164.947-4.029,1.79a4.243,4.243,0,0,1-1.7-.768Q865.73,66.554,865.73,66a2.9,2.9,0,0,1,2.455-.925,10.917,10.917,0,0,1,1.969.254h.022l.157-.239-.075-.12a5.956,5.956,0,0,0-2.149-1.41,2.74,2.74,0,0,0-1.932.88,4.086,4.086,0,0,0-1.141,2.6q0,1.418,1.932,2.32a5.649,5.649,0,0,0-1.428,2.107,5.367,5.367,0,0,0-.347,1.564v.731a2.907,2.907,0,0,0,.336,1.119q.872,1.455,4.2,1.455a5.165,5.165,0,0,0,2.582-.507l1.514-.948v-.238h-3.409a5.814,5.814,0,0,1-3.559-.9,1.945,1.945,0,0,1-.836-1.6,2.6,2.6,0,0,1,.023-.336A3.99,3.99,0,0,1,867.3,70.3a8,8,0,0,1,2.037-1.291,3.921,3.921,0,0,0,.172,1.1q.514.94,2.693.94h1.768a4.163,4.163,0,0,0,.992-.235,2.053,2.053,0,0,0,1.171-1.362q.022.217.6.717a15.518,15.518,0,0,0,3.619,1.514q.261,0,.709-.969a3.22,3.22,0,0,0,1.559.336h1.239a7.44,7.44,0,0,0,3.82-1.153m10.885-3.1q.79.059,1.2,2.112a9.937,9.937,0,0,1-2.455-1.066,1.718,1.718,0,0,1,1.253-1.045M880,69.628a7.342,7.342,0,0,1-2.6-1.3v-.045a6.924,6.924,0,0,1,2.015-.544.282.282,0,0,1,.231.134v.47A2.5,2.5,0,0,0,880,69.591Z" transform="translate(-778.062 -57.171)" fill="#fff"/>
      <path id="Path_228" data-name="Path 228" d="M1084.906,145.865a2.47,2.47,0,0,0-.589,1.216.3.3,0,0,1,.022.082q1.38.828,1.441.828h.059a2.5,2.5,0,0,0,.627-1.284.127.127,0,0,0-.015-.052q-.261-.178-1.425-.873c-.025,0-.065.027-.12.082" transform="translate(-975.296 -131.126)" fill="#fff"/>
      <path id="Path_229" data-name="Path 229" d="M4.4,207.837A7.673,7.673,0,0,0,2.9,207a2.682,2.682,0,0,0-.672,1.321,7.953,7.953,0,0,0,1.5.97q.12-.023.635-.828a7,7,0,0,0,1.395.769h.06a2.259,2.259,0,0,0,.612-1.246v-.06A5.168,5.168,0,0,0,4.99,207q-.255,0-.59.836" transform="translate(-2.005 -186.188)" fill="#fff"/>
      <path id="Path_230" data-name="Path 230" d="M197.241,315.347q-.231,0-.612.828-1.359-.791-1.374-.828a.349.349,0,0,0-.141.037,2.747,2.747,0,0,0-.612,1.283v.023a12.056,12.056,0,0,0,1.462.9,1.894,1.894,0,0,0,.567-.806v-.022q1.38.79,1.4.828l.075-.015a2.45,2.45,0,0,0,.649-1.306v-.014a10.782,10.782,0,0,0-1.417-.911" transform="translate(-174.947 -283.641)" fill="#fff"/>
      <path id="Path_231" data-name="Path 231" d="M30.546,239.744a5.537,5.537,0,0,0-.978-2.8h-.119l-.769,1.53a9.647,9.647,0,0,1,.836,1.887H27.681a2.271,2.271,0,0,1-1.265-.3,1.515,1.515,0,0,1-.586-.753q.216-.567.366-.97l-.664-.277q-1.074,2.3-2.723,2.3H7.163a2.449,2.449,0,0,1-1.291-.739,6,6,0,0,1-1.119-3.014,6.46,6.46,0,0,0-.193-1.4l-.045.022a2.429,2.429,0,0,0-.575,1.381v.268l.023.045c-.094.06-.141.1-.141.12a8.674,8.674,0,0,0-2.768,1.507A4.94,4.94,0,0,0,0,240.968v.1q0,.552,1.053.552a5.1,5.1,0,0,0,3.006-.716,2.022,2.022,0,0,0,.478-.9h.023a2.7,2.7,0,0,0,2.559,2.051H22.659a4.365,4.365,0,0,0,1.052-.239,2.776,2.776,0,0,0,1.5-1.507h.023a1.649,1.649,0,0,0,.172.626,2.128,2.128,0,0,0,1.857,1.119h2.552a11.8,11.8,0,0,0,.732-2.312m-28.561.164H1.552a3,3,0,0,1-.671-.075v-.023a1.648,1.648,0,0,1,.455-.306A11.735,11.735,0,0,0,3.507,238.5a2.815,2.815,0,0,0,.552-.717,9.495,9.495,0,0,0,.283,1.575,4.642,4.642,0,0,1-2.357.552" transform="translate(0 -211.559)" fill="#fff"/>
      <path id="Path_232" data-name="Path 232" d="M280.137,314.68v.1a7.8,7.8,0,0,0,1.455.925q.313,0,.731-1.358a9.974,9.974,0,0,0-1.463-.925q-.35,0-.724,1.261" transform="translate(-251.971 -281.907)" fill="#fff"/>
      <path id="Path_233" data-name="Path 233" d="M319.235,204.195l.053-.276-.187-.1a3.016,3.016,0,0,0-.754,1.768,1.421,1.421,0,0,0,.768,1.268,34.142,34.142,0,0,1,.836,5.274h-2.126a2.325,2.325,0,0,1-1.657-.574,2.752,2.752,0,0,0,.433-1.358v-.119a1.53,1.53,0,0,0-.06-.351,1.959,1.959,0,0,0-1.814-.962h-.336a4.053,4.053,0,0,0-1.746.425q-.343.754-.619,1.522l.067.067a2.894,2.894,0,0,1,.567-.067,2.331,2.331,0,0,1,1.716.962,9.994,9.994,0,0,1-3.246.455h-.6a2.19,2.19,0,0,1-2.1-2.141l-.246-.008a5.952,5.952,0,0,0-.6,1.507,2.294,2.294,0,0,0,1.126,1.783l-.157.366a4.216,4.216,0,0,1-3.842,2.29,5.358,5.358,0,0,1-1.552-.3l-.089.329a9.119,9.119,0,0,0,3.1,1.365,3.251,3.251,0,0,0,.776-.1q.238-.038.992-.88a8.5,8.5,0,0,0,1.508-2.746l.2.082a2.876,2.876,0,0,0,.737.141l.008.009h.3a8.448,8.448,0,0,0,4.432-1.179.879.879,0,0,1,.179.194,2.524,2.524,0,0,0,2.358.985h2.567a6.478,6.478,0,0,0,.723-2.887,17.685,17.685,0,0,0-.358-3.126l.187.089.082-.023.731-1.47v-.119l-.948-.627q-1.41-.813-1.41-1.462" transform="translate(-272.596 -183.322)" fill="#fff"/>
      <path id="Path_234" data-name="Path 234" d="M501.849,208.415l-.873,1.776a59.612,59.612,0,0,1,.9,7.767h.261a8.146,8.146,0,0,0,.8-2.433,62.659,62.659,0,0,0-.82-7.11Z" transform="translate(-450.606 -187.46)" fill="#fff"/>
      <path id="Path_235" data-name="Path 235" d="M567.485,207.837a7.688,7.688,0,0,0-1.5-.836,2.684,2.684,0,0,0-.672,1.321,7.928,7.928,0,0,0,1.5.97q.12-.023.634-.828a7,7,0,0,0,1.4.769h.06a2.267,2.267,0,0,0,.612-1.246v-.06a5.174,5.174,0,0,0-1.44-.925q-.254,0-.59.836" transform="translate(-508.475 -186.188)" fill="#fff"/>
      <path id="Path_236" data-name="Path 236" d="M694.033,219.2a2.5,2.5,0,0,0-.634,1.224v.134a10.88,10.88,0,0,0,1.455.851h.045a2.82,2.82,0,0,0,.649-1.223v-.112q-.082-.089-1.44-.9a.12.12,0,0,0-.075.023" transform="translate(-623.682 -197.137)" fill="#fff"/>
      <path id="Path_237" data-name="Path 237" d="M587.563,204.193l.052-.276-.186-.1a3.019,3.019,0,0,0-.754,1.768,1.42,1.42,0,0,0,.769,1.269,34.247,34.247,0,0,1,.836,5.275h-2.067a1.37,1.37,0,0,1-1.325-.672,7.48,7.48,0,0,1-.511-2.6q-.149-1.932-.41-4.589h-.186l-.791,1.366q.261,2.6.373,4.1a17.316,17.316,0,0,0,.209,1.828q-.366.575-1.85.574c-.08,0-.159,0-.24-.007h-.291a2.32,2.32,0,0,1-1.656-.575,2.76,2.76,0,0,0,.432-1.357v-.12a1.555,1.555,0,0,0-.06-.351,1.959,1.959,0,0,0-1.814-.962h-.335a4.054,4.054,0,0,0-1.746.425q-.343.754-.619,1.522l.068.067a2.886,2.886,0,0,1,.567-.067,2.331,2.331,0,0,1,1.715.963,9.99,9.99,0,0,1-3.246.455h-4.253a2.449,2.449,0,0,1-1.291-.738,5.986,5.986,0,0,1-1.119-3.014,6.489,6.489,0,0,0-.194-1.4l-.045.022a2.427,2.427,0,0,0-.574,1.381v.268l.022.045c-.095.06-.141.1-.141.12a8.7,8.7,0,0,0-2.769,1.507,4.95,4.95,0,0,0-1.052,2.417v.1q0,.552,1.052.552a5.1,5.1,0,0,0,3.007-.716,2.021,2.021,0,0,0,.478-.9h.023a2.7,2.7,0,0,0,2.559,2.051h3.858a8.44,8.44,0,0,0,4.431-1.179.861.861,0,0,1,.179.194,2.526,2.526,0,0,0,2.358.985h.395l.014-.012a3.1,3.1,0,0,0,.934-.152,3.194,3.194,0,0,0,1.448-1.283,2.192,2.192,0,0,0,.821.97,2.708,2.708,0,0,0,1.5.467l.011.011h2.4a6.471,6.471,0,0,0,.724-2.887,17.7,17.7,0,0,0-.358-3.126l.187.089.082-.023.731-1.469v-.12l-.947-.627q-1.409-.814-1.41-1.462m-22.495,7.476h-.433a3,3,0,0,1-.671-.075v-.023a1.634,1.634,0,0,1,.455-.306,11.727,11.727,0,0,0,2.171-1.007,2.8,2.8,0,0,0,.552-.717,9.511,9.511,0,0,0,.283,1.575,4.642,4.642,0,0,1-2.357.552" transform="translate(-506.469 -183.32)" fill="#fff"/>
      <path id="Path_238" data-name="Path 238" d="M918.073,337.313a2.541,2.541,0,0,0-.515.783.02.02,0,0,1-.023.023q-1.358-.805-1.417-.806H916.1l-.059.015a2.437,2.437,0,0,0-.619,1.283v.075a12.329,12.329,0,0,0,1.5.85,2.032,2.032,0,0,0,.515-.8h.015q1.4.805,1.44.8h.045a2.84,2.84,0,0,0,.627-1.2v-.179a13.914,13.914,0,0,0-1.462-.843Z" transform="translate(-823.385 -303.398)" fill="#fff"/>
      <path id="Path_239" data-name="Path 239" d="M888.789,215.848a3.354,3.354,0,0,1-1.357-.85,8.125,8.125,0,0,1-.575-3.082l.418.209h.112l.731-1.432v-.165l-1.462-.947a1.032,1.032,0,0,1-.693-.955c0-.06,0-.119.006-.179l-.134-.1-.1.164a3.186,3.186,0,0,0-.663,1.671v.179q0,.447.843.9.387,4.036.432,4.409a4.314,4.314,0,0,1-2.155.53q-.127,0-.246-.007l-.011.007h-2.347l-.8,1.589.075.1a4.969,4.969,0,0,1,1.57.217,1.734,1.734,0,0,1,1,1.142h-5.177a10.064,10.064,0,0,1-2.627-.336,2.706,2.706,0,0,1-2.193-2.678v-.373l-.194-.074a4.394,4.394,0,0,0-.478,1.641v.291q0,3.2,5.492,3.223h4.626a5.544,5.544,0,0,0,1.3-1.574,2.766,2.766,0,0,0,.2-.452,1.467,1.467,0,0,0,.067-.459.994.994,0,0,0-.231-.567h.538l.134-.134v-.011c.048-.013.095-.018.142-.034a4.981,4.981,0,0,1,1.507-.5h.059a6.1,6.1,0,0,1,2.187.888h.126a7.072,7.072,0,0,0,.56-1.448.636.636,0,0,0,.029-.2.56.56,0,0,0-.015-.135,4.447,4.447,0,0,0-.687-.47" transform="translate(-785.005 -187.396)" fill="#fff"/>
      <path id="Path_240" data-name="Path 240" d="M1058.732,204.195l.052-.276-.186-.1a3.013,3.013,0,0,0-.753,1.768,1.421,1.421,0,0,0,.768,1.268,34.138,34.138,0,0,1,.836,5.274h-2.126a2.322,2.322,0,0,1-1.657-.574,2.75,2.75,0,0,0,.433-1.358v-.119a1.52,1.52,0,0,0-.06-.351,1.958,1.958,0,0,0-1.813-.962h-.336a4.052,4.052,0,0,0-1.746.425q-.344.754-.619,1.522l.067.067a2.9,2.9,0,0,1,.567-.067,2.329,2.329,0,0,1,1.716.962,9.993,9.993,0,0,1-3.245.455h-.635a1.374,1.374,0,0,1-1.327-.672,7.33,7.33,0,0,1-.512-2.6q-.144-1.932-.406-4.589h-.195l-.783,1.365q.261,2.6.369,4.1a13.4,13.4,0,0,0,.295,2.223,2.377,2.377,0,0,0,.977,1.388,2.711,2.711,0,0,0,1.463.464l.014.014h.344l0,0a8.41,8.41,0,0,0,4.384-1.176c.015,0,.075.064.179.194a2.525,2.525,0,0,0,2.358.985h2.566a6.468,6.468,0,0,0,.723-2.887,17.67,17.67,0,0,0-.358-3.126l.186.089.083-.023.731-1.47v-.119l-.948-.627q-1.409-.813-1.409-1.462" transform="translate(-941.526 -183.322)" fill="#fff"/>
      <path id="Path_241" data-name="Path 241" d="M1203.959,208.415h-.26l-.874,1.776a59.6,59.6,0,0,1,.9,7.767h.261a8.161,8.161,0,0,0,.8-2.433,62.577,62.577,0,0,0-.821-7.11" transform="translate(-1081.889 -187.46)" fill="#fff"/>
      <path id="Path_242" data-name="Path 242" d="M1498.465,363.173s3.138,3.418,3.242,3.542a17.287,17.287,0,0,1,3.015-3.2l-2.655-2.763,2.7-2.549a36.744,36.744,0,0,1-3.035-4.393c0-.014-.02-.013-.021,0-.114,2.016-3.056,4.126-3.056,4.126l2.452,2.808Z" transform="translate(-1347.805 -318.231)" fill="#fff"/>
      <path id="Path_243" data-name="Path 243" d="M1322.923,294.923s-1.391,4.427-1.446,4.579a17.316,17.316,0,0,1,4.275,1.012l1.065-3.681,3.556,1.061a36.793,36.793,0,0,1,2.286-4.825c.011-.012,0-.024-.012-.017-1.8.909-5.1-.584-5.1-.584L1326.34,296Z" transform="translate(-1188.611 -263.063)" fill="#fff"/>
      <path id="Path_244" data-name="Path 244" d="M1325.286,111s-4.529,1.009-4.689,1.037a17.288,17.288,0,0,1,1.261,4.209l3.72-.918.859,3.609a36.714,36.714,0,0,1,5.322-.432c.015,0,.021-.011.008-.019-1.689-1.107-2.045-4.709-2.045-4.709l-3.658.719Z" transform="translate(-1187.82 -99.836)" fill="#fff"/>
      <path id="Path_245" data-name="Path 245" d="M1504.872,3.542S1501.734.124,1501.63,0a17.277,17.277,0,0,1-3.015,3.2l2.655,2.763-2.7,2.549a36.743,36.743,0,0,1,3.035,4.393c0,.014.02.013.021,0,.114-2.016,3.056-4.125,3.056-4.125l-2.452-2.808Z" transform="translate(-1347.902)" fill="#fff"/>
      <path id="Path_246" data-name="Path 246" d="M1636.681,115.321s1.39-4.427,1.446-4.579a17.316,17.316,0,0,1-4.275-1.012l-1.065,3.681-3.556-1.061a36.779,36.779,0,0,1-2.286,4.825c-.011.012,0,.024.012.017,1.8-.909,5.1.584,5.1.584l1.206-3.528Z" transform="translate(-1463.361 -98.697)" fill="#fff"/>
      <path id="Path_247" data-name="Path 247" d="M1634.406,300.211s4.529-1.009,4.688-1.037a17.3,17.3,0,0,1-1.26-4.209l-3.72.918-.859-3.609a36.713,36.713,0,0,1-5.322.432c-.015,0-.021.011-.009.019,1.689,1.107,2.045,4.709,2.045,4.709l3.658-.719Z" transform="translate(-1464.241 -262.887)" fill="#fff"/>
      <path id="Path_248" data-name="Path 248" d="M1393.229,16.706h0q.276.085.471.9.255.784.014.911l-.615-.289a1.143,1.143,0,0,0-1.04-.067q-.849.445.437,3.783t.95,3.438q-.364.191-1.511-.966a5.891,5.891,0,0,0-3.051-1.841,1.063,1.063,0,0,1-.056.335q-.15.155-1.205.134t-1.3-.349q-1.029-1.524-.241-1.937,1.424-.823,4.694,1.439a16.381,16.381,0,0,0,1.452,1.15q-.6-1.6-1.085-3.252-.961-3.014.1-3.493a2.27,2.27,0,0,1,1.988.106" transform="translate(-1246.41 -14.767)" fill="#fff"/>
      <path id="Path_249" data-name="Path 249" d="M1292.994,196.023h0q.211-.2,1.015.042c.537.113.8.261.794.444l-.557.388a1.14,1.14,0,0,0-.578.867q-.039.956,3.495,1.514t3.452.9q-.016.411-1.592.825a5.894,5.894,0,0,0-3.12,1.721,1.065,1.065,0,0,1,.262.216q.061.209-.486,1.111t-.953.955q-1.836.13-1.8-.76,0-1.644,3.594-3.347a16.154,16.154,0,0,0,1.722-.682q-1.683-.275-3.36-.686-3.088-.676-2.973-1.836a2.27,2.27,0,0,1,1.085-1.668" transform="translate(-1162.012 -176.235)" fill="#fff"/>
      <path id="Path_250" data-name="Path 250" d="M1379.46,375.792h0q-.064-.281.544-.858.55-.612.781-.466s.02.225.057.677a1.142,1.142,0,0,0,.463.934q.809.513,3.058-2.27t2.5-2.543q.347.22-.082,1.792a5.893,5.893,0,0,0-.069,3.562,1.067,1.067,0,0,1,.318-.118q.21.052.719.976t.349,1.3q-.806,1.654-1.557,1.178-1.423-.823-1.1-4.785a16.315,16.315,0,0,0,.271-1.833q-1.08,1.32-2.275,2.566-2.129,2.338-3.076,1.658a2.265,2.265,0,0,1-.9-1.774" transform="translate(-1240.759 -333.922)" fill="#fff"/>
      <path id="Path_251" data-name="Path 251" d="M1600.2,380.542h0q-.276-.084-.471-.9-.255-.784-.013-.91l.615.29a1.144,1.144,0,0,0,1.04.066q.849-.445-.437-3.783t-.95-3.438q.363-.191,1.511.967a5.892,5.892,0,0,0,3.051,1.84,1.064,1.064,0,0,1,.056-.334q.151-.156,1.205-.135t1.3.349q1.029,1.524.241,1.937-1.424.822-4.694-1.439a16.382,16.382,0,0,0-1.452-1.149q.6,1.594,1.085,3.253.961,3.013-.1,3.492a2.266,2.266,0,0,1-1.988-.106" transform="translate(-1438.767 -334.454)" fill="#fff"/>
      <path id="Path_252" data-name="Path 252" d="M1691.358,204.925h0q-.212.2-1.015-.042c-.537-.113-.8-.26-.794-.444l.557-.387a1.143,1.143,0,0,0,.578-.867q.039-.957-3.495-1.514t-3.452-.9q.017-.41,1.592-.825a5.89,5.89,0,0,0,3.12-1.721,1.062,1.062,0,0,1-.261-.216q-.061-.208.486-1.11t.954-.955q1.835-.13,1.8.76,0,1.645-3.594,3.346a16.163,16.163,0,0,0-1.722.683q1.683.273,3.36.685,3.088.676,2.973,1.836a2.269,2.269,0,0,1-1.085,1.668" transform="translate(-1514.447 -176.23)" fill="#fff"/>
      <path id="Path_253" data-name="Path 253" d="M1608.277,28.534h0q.064.281-.544.858c-.367.409-.628.564-.781.467,0,0-.02-.226-.058-.677a1.141,1.141,0,0,0-.462-.934q-.809-.513-3.058,2.269t-2.5,2.542q-.347-.219.082-1.791a5.9,5.9,0,0,0,.069-3.563,1.072,1.072,0,0,1-.318.119q-.209-.053-.719-.977t-.349-1.3q.806-1.653,1.557-1.178,1.424.823,1.1,4.785a16.35,16.35,0,0,0-.271,1.833q1.08-1.32,2.274-2.566,2.129-2.337,3.076-1.658a2.267,2.267,0,0,1,.9,1.774" transform="translate(-1438.769 -21.821)" fill="#fff"/>
      <path id="Path_254" data-name="Path 254" d="M1460.418,168.493a5.915,5.915,0,0,0-1.144-.494,6.808,6.808,0,0,0-3.146-.23,7.589,7.589,0,0,0-1.361.351l-.136.048a7.545,7.545,0,0,0-.721.32q-.309.157-.615.341a14.715,14.715,0,0,0-1.371.941,38.453,38.453,0,0,1-.216-6.557c.077-.236.26-.27.339-.52a.573.573,0,0,0-.058-.425c.87.328,1.392,1.138,1.428,2.623a2.271,2.271,0,0,0-.572-3.205c.938.244,1.727.715,1.893,2.7.683-1.848-.151-3.417-1.712-3.768a2.89,2.89,0,0,1,2.712,2.624,2.843,2.843,0,0,0-2.576-3.655,2.592,2.592,0,0,1,2.569.726,2.521,2.521,0,0,0-2.824-1.554c.15-.3.671-.515,1.587-.644a2.261,2.261,0,0,0-2.263.233,1.769,1.769,0,0,1,.838-1.025,1.773,1.773,0,0,0-1.522.888,2.222,2.222,0,0,0-.3-1.245,1.464,1.464,0,0,0-.228.548,4.021,4.021,0,0,0-.071.7,1.773,1.773,0,0,0-1.521-.888,1.771,1.771,0,0,1,.838,1.025,2.26,2.26,0,0,0-2.262-.233c.915.129,1.436.345,1.586.644a2.521,2.521,0,0,0-2.824,1.554,2.593,2.593,0,0,1,2.569-.726,2.844,2.844,0,0,0-2.576,3.655,2.891,2.891,0,0,1,2.713-2.624c-1.562.351-2.4,1.92-1.712,3.768.165-1.986.954-2.457,1.892-2.7a2.272,2.272,0,0,0-.572,3.205c.036-1.485.558-2.295,1.428-2.623a.568.568,0,0,0-.058.425c.079.252.263.285.34.525a38.941,38.941,0,0,1-.217,6.552,11.127,11.127,0,0,0-2.707-1.6c-.113-.042-.223-.081-.333-.116a7.158,7.158,0,0,0-2.557-.363,6.616,6.616,0,0,0-2.64.668c-.1.051-.189.1-.257.137a.026.026,0,0,0,.022.046c.079-.025.157-.047.235-.069a7.3,7.3,0,0,1,2.64-.259,7.874,7.874,0,0,1,2.557.688,13.548,13.548,0,0,1,3.044,1.982,33.473,33.473,0,0,1-3.044,2.6l-.1.054a.712.712,0,0,0-1.269.251.687.687,0,0,0,.138.614,1.023,1.023,0,0,0,1.228.179,17.033,17.033,0,0,0,3.37-2.806q.17-.157.346-.314c.117.1.232.208.345.312.619.565,1.185,1.118,1.7,1.587.214.193.418.373.615.533a5.354,5.354,0,0,0,.857.594,1.112,1.112,0,0,0,1.361-.03.747.747,0,0,0,.063-.056.8.8,0,0,0,.139-.614.718.718,0,0,0-.534-.527.711.711,0,0,0-.735.277,2.645,2.645,0,0,1-.295-.179,10.069,10.069,0,0,1-.857-.692c-.193-.169-.4-.354-.615-.551-.421-.383-.883-.806-1.375-1.234a16.914,16.914,0,0,1,1.375-1.039c.2-.136.406-.266.615-.392q.417-.248.857-.459a8.72,8.72,0,0,1,1.361-.521,7.189,7.189,0,0,1,3.146-.2,7.924,7.924,0,0,1,1.121.264.026.026,0,0,0,.022-.046" transform="translate(-1297.073 -141.188)" fill="#fff"/>
    </g>
  </g>
</svg>
